HIERARCHY
ROOT Hips
{
  OFFSET 5.72205e-005 65.662 3.42586
  CHANNELS 6 Xposition Yposition Zposition Zrotation Xrotation Yrotation
  JOINT Chest
  {
    OFFSET 0 8.7983 -4.7612
    CHANNELS 6 Xposition Yposition Zposition Zrotation Xrotation Yrotation
    JOINT Chest2
    {
      OFFSET 0 8.0291 0.4195
      CHANNELS 6 Xposition Yposition Zposition Zrotation Xrotation Yrotation
      JOINT Chest3
      {
        OFFSET 0 9.9351 -2.2114
        CHANNELS 6 Xposition Yposition Zposition Zrotation Xrotation Yrotation
        JOINT Neck
        {
          OFFSET 0 22.3885 -0.4656
          CHANNELS 6 Xposition Yposition Zposition Zrotation Xrotation Yrotation
          JOINT Head
          {
            OFFSET -0.0001 12.643 3.4389
            CHANNELS 6 Xposition Yposition Zposition Zrotation Xrotation Yrotation
            End Site
            {
              OFFSET 0.0001 17.6655 0.5274
            }
          }
        }
        JOINT LeftCollar
        {
          OFFSET 2.2603 21.606 7.4023
          CHANNELS 6 Xposition Yposition Zposition Zrotation Xrotation Yrotation
          JOINT LeftShoulder
          {
            OFFSET 13.5163 -1.1332 -5.0146
            CHANNELS 6 Xposition Yposition Zposition Zrotation Xrotation Yrotation
            JOINT LeftElbow
            {
              OFFSET -0.0995 -28.05 -0.2431
              CHANNELS 6 Xposition Yposition Zposition Zrotation Xrotation Yrotation
              JOINT LeftWrist
              {
                OFFSET 0.0679 -23.3996 -0.1402
                CHANNELS 6 Xposition Yposition Zposition Zrotation Xrotation Yrotation
                JOINT LeftFinger1
                {
                  OFFSET 0.7932 -9.069 2.5189
                  CHANNELS 6 Xposition Yposition Zposition Zrotation Xrotation Yrotation
                  JOINT LeftFinger11
                  {
                    OFFSET -0.8272 -3.3923 0.5977
                    CHANNELS 6 Xposition Yposition Zposition Zrotation Xrotation Yrotation
                    JOINT LeftFinger12
                    {
                      OFFSET -0.5649 -2.3158 0.4082
                      CHANNELS 6 Xposition Yposition Zposition Zrotation Xrotation Yrotation
                      End Site
                      {
                        OFFSET -0.4919 -1.6479 0.2673
                      }
                    }
                  }
                }
                JOINT LeftFinger2
                {
                  OFFSET 0.9159 -9.2044 0.2193
                  CHANNELS 6 Xposition Yposition Zposition Zrotation Xrotation Yrotation
                  JOINT LeftFinger21
                  {
                    OFFSET 0.0117 -4.1944 -0.0248
                    CHANNELS 6 Xposition Yposition Zposition Zrotation Xrotation Yrotation
                    JOINT LeftFinger22
                    {
                      OFFSET 0.0071 -2.3249 -0.0142
                      CHANNELS 6 Xposition Yposition Zposition Zrotation Xrotation Yrotation
                      End Site
                      {
                        OFFSET -0.1475 -2.0882 0.0028
                      }
                    }
                  }
                }
                JOINT LeftFinger3
                {
                  OFFSET 0.6113 -8.7231 -2.0637
                  CHANNELS 6 Xposition Yposition Zposition Zrotation Xrotation Yrotation
                  JOINT LeftFinger31
                  {
                    OFFSET -0.1927 -3.8059 -0.2383
                    CHANNELS 6 Xposition Yposition Zposition Zrotation Xrotation Yrotation
                    JOINT LeftFinger32
                    {
                      OFFSET -0.1091 -2.1688 -0.1362
                      CHANNELS 6 Xposition Yposition Zposition Zrotation Xrotation Yrotation
                      End Site
                      {
                        OFFSET -0.2358 -1.9176 -0.0906
                      }
                    }
                  }
                }
                JOINT LeftFinger4
                {
                  OFFSET -0.6151 -8.0947 -3.5641
                  CHANNELS 6 Xposition Yposition Zposition Zrotation Xrotation Yrotation
                  JOINT LeftFinger41
                  {
                    OFFSET -0.4882 -2.341 -0.6462
                    CHANNELS 6 Xposition Yposition Zposition Zrotation Xrotation Yrotation
                    JOINT LeftFinger42
                    {
                      OFFSET -0.3575 -1.7167 -0.4742
                      CHANNELS 6 Xposition Yposition Zposition Zrotation Xrotation Yrotation
                      End Site
                      {
                        OFFSET -0.4187 -1.5237 -0.3496
                      }
                    }
                  }
                }
                JOINT LeftFinger0
                {
                  OFFSET -1.42 -1.8761 1.4223
                  CHANNELS 6 Xposition Yposition Zposition Zrotation Xrotation Yrotation
                  JOINT LeftFinger01
                  {
                    OFFSET -1.1471 -3.4929 2.6334
                    CHANNELS 6 Xposition Yposition Zposition Zrotation Xrotation Yrotation
                    JOINT LeftFinger02
                    {
                      OFFSET -0.823 -2.3 1.6571
                      CHANNELS 6 Xposition Yposition Zposition Zrotation Xrotation Yrotation
                      End Site
                      {
                        OFFSET -0.5822 -1.6914 1.1582
                      }
                    }
                  }
                }
              }
            }
          }
        }
        JOINT RightCollar
        {
          OFFSET -2.2603 21.606 7.4023
          CHANNELS 6 Xposition Yposition Zposition Zrotation Xrotation Yrotation
          JOINT RightShoulder
          {
            OFFSET -13.5187 -1.1334 -5.0155
            CHANNELS 6 Xposition Yposition Zposition Zrotation Xrotation Yrotation
            JOINT RightElbow
            {
              OFFSET 0.0994 -28.0499 -0.2431
              CHANNELS 6 Xposition Yposition Zposition Zrotation Xrotation Yrotation
              JOINT RightWrist
              {
                OFFSET -0.0679 -23.3996 -0.1402
                CHANNELS 6 Xposition Yposition Zposition Zrotation Xrotation Yrotation
                JOINT RightFinger1
                {
                  OFFSET -0.7932 -9.0691 2.5189
                  CHANNELS 6 Xposition Yposition Zposition Zrotation Xrotation Yrotation
                  JOINT RightFinger11
                  {
                    OFFSET 0.8272 -3.3923 0.5977
                    CHANNELS 6 Xposition Yposition Zposition Zrotation Xrotation Yrotation
                    JOINT RightFinger12
                    {
                      OFFSET 0.565 -2.3158 0.4082
                      CHANNELS 6 Xposition Yposition Zposition Zrotation Xrotation Yrotation
                      End Site
                      {
                        OFFSET 0.4919 -1.6479 0.2673
                      }
                    }
                  }
                }
                JOINT RightFinger2
                {
                  OFFSET -0.916 -9.2044 0.2193
                  CHANNELS 6 Xposition Yposition Zposition Zrotation Xrotation Yrotation
                  JOINT RightFinger21
                  {
                    OFFSET -0.0117 -4.1944 -0.0248
                    CHANNELS 6 Xposition Yposition Zposition Zrotation Xrotation Yrotation
                    JOINT RightFinger22
                    {
                      OFFSET -0.0071 -2.3249 -0.0142
                      CHANNELS 6 Xposition Yposition Zposition Zrotation Xrotation Yrotation
                      End Site
                      {
                        OFFSET 0.1475 -2.0882 0.0028
                      }
                    }
                  }
                }
                JOINT RightFinger3
                {
                  OFFSET -0.6113 -8.7231 -2.0637
                  CHANNELS 6 Xposition Yposition Zposition Zrotation Xrotation Yrotation
                  JOINT RightFinger31
                  {
                    OFFSET 0.1927 -3.8059 -0.2383
                    CHANNELS 6 Xposition Yposition Zposition Zrotation Xrotation Yrotation
                    JOINT RightFinger32
                    {
                      OFFSET 0.1091 -2.1688 -0.1362
                      CHANNELS 6 Xposition Yposition Zposition Zrotation Xrotation Yrotation
                      End Site
                      {
                        OFFSET 0.2358 -1.9176 -0.0906
                      }
                    }
                  }
                }
                JOINT RightFinger4
                {
                  OFFSET 0.6151 -8.0947 -3.564
                  CHANNELS 6 Xposition Yposition Zposition Zrotation Xrotation Yrotation
                  JOINT RightFinger41
                  {
                    OFFSET 0.4882 -2.341 -0.6462
                    CHANNELS 6 Xposition Yposition Zposition Zrotation Xrotation Yrotation
                    JOINT RightFinger42
                    {
                      OFFSET 0.3574 -1.7166 -0.4742
                      CHANNELS 6 Xposition Yposition Zposition Zrotation Xrotation Yrotation
                      End Site
                      {
                        OFFSET 0.4187 -1.5237 -0.3496
                      }
                    }
                  }
                }
                JOINT RightFinger0
                {
                  OFFSET 1.4199 -1.8761 1.4221
                  CHANNELS 6 Xposition Yposition Zposition Zrotation Xrotation Yrotation
                  JOINT RightFinger01
                  {
                    OFFSET 1.1472 -3.4929 2.6336
                    CHANNELS 6 Xposition Yposition Zposition Zrotation Xrotation Yrotation
                    JOINT RightFinger02
                    {
                      OFFSET 0.8229 -2.3 1.6571
                      CHANNELS 6 Xposition Yposition Zposition Zrotation Xrotation Yrotation
                      End Site
                      {
                        OFFSET 0.5822 -1.6914 1.1582
                      }
                    }
                  }
                }
              }
            }
          }
        }
      }
    }
  }
  JOINT RightHip
  {
    OFFSET -9.412 3.9771 -0.7758
    CHANNELS 6 Xposition Yposition Zposition Zrotation Xrotation Yrotation
    JOINT RightKnee
    {
      OFFSET -0.7531 -40.938 0
      CHANNELS 6 Xposition Yposition Zposition Zrotation Xrotation Yrotation
      JOINT RightAnkle
      {
        OFFSET 0 -40.1986 0
        CHANNELS 6 Xposition Yposition Zposition Zrotation Xrotation Yrotation
        JOINT RightToe
        {
          OFFSET 0 -4.4182 9.239
          CHANNELS 6 Xposition Yposition Zposition Zrotation Xrotation Yrotation
          End Site
          {
            OFFSET 0 0 6.1981
          }
        }
      }
    }
  }
  JOINT LeftHip
  {
    OFFSET 9.4119 3.9773 -0.7758
    CHANNELS 6 Xposition Yposition Zposition Zrotation Xrotation Yrotation
    JOINT LeftKnee
    {
      OFFSET 0.7532 -40.9383 0
      CHANNELS 6 Xposition Yposition Zposition Zrotation Xrotation Yrotation
      JOINT LeftAnkle
      {
        OFFSET 0 -40.1986 0
        CHANNELS 6 Xposition Yposition Zposition Zrotation Xrotation Yrotation
        JOINT LeftToe
        {
          OFFSET 0 -4.4182 9.239
          CHANNELS 6 Xposition Yposition Zposition Zrotation Xrotation Yrotation
          End Site
          {
            OFFSET 0 0 6.1981
          }
        }
      }
    }
  }
}
MOTION
Frames:	4
Frame Time:	0.0333333
5.72205e-005 65.662 3.42586 0 0 -0 0 8.7983 -4.7612 0 0 -0 0 8.0291 0.4195 0 0 -0 0 9.9351 -2.2114 0 0 -0 0 22.3885 -0.4656 0 0 -0 -0.0001 12.643 3.4389 0 0 -0 2.2603 21.606 7.4023 0 0 -12.5014 13.5163 -1.1332 -5.0146 88.1196 14.2451 10.6914 -0.0995 -28.05 -0.2431 -0.00160068 -0.00239207 0.000740045 0.0679 -23.3996 -0.1402 -8.4365e-005 7.00714e-005 -9.52055e-007 0.7932 -9.069 2.5189 9.93923e-017 -1.98785e-016 -1.59028e-015 -0.8272 -3.3923 0.5977 9.93923e-017 -5.96354e-016 -1.59028e-015 -0.5649 -2.3158 0.4082 -9.93923e-017 -5.96354e-016 -1.59028e-015 0.9159 -9.2044 0.2193 9.93923e-017 -1.98785e-016 -1.59028e-015 0.0117 -4.1944 -0.0248 -0.0128176 0.00232552 8.52707e-005 0.0071 -2.3249 -0.0142 9.93923e-017 5.96354e-016 -0 0.6113 -8.7231 -2.0637 9.93923e-017 -1.98785e-016 -1.59028e-015 -0.1927 -3.8059 -0.2383 -0.0160551 0.00299681 0.000857156 -0.1091 -2.1688 -0.1362 -2.48481e-016 0 3.18055e-015 -0.6151 -8.0947 -3.5641 9.93923e-017 -1.98785e-016 -1.59028e-015 -0.4882 -2.341 -0.6462 -0.0125865 0.0031206 0.00282719 -0.3575 -1.7167 -0.4742 0 1.98785e-016 -0 -1.42 -1.8761 1.4223 9.93923e-017 -1.98785e-016 -1.59028e-015 -1.1471 -3.4929 2.6334 9.93923e-017 -5.96354e-016 -1.59028e-015 -0.823 -2.3 1.6571 -9.93923e-017 -5.96354e-016 -1.59028e-015 -2.2603 21.606 7.4023 -0.865644 0.16582 7.03859 -13.5187 -1.1334 -5.0155 -88.0329 10.2057 -10.5567 0.0994 -28.0499 -0.2431 0.0015593 -0.00248883 -0.000788628 -0.0679 -23.3996 -0.1402 7.87605e-005 4.10553e-005 1.24965e-005 -0.7932 -9.0691 2.5189 -3.97569e-016 -7.95139e-016 3.18055e-015 0.8272 -3.3923 0.5977 -1.98785e-016 -3.97569e-016 3.18055e-015 0.565 -2.3158 0.4082 -1.98785e-016 0 3.18055e-015 -0.916 -9.2044 0.2193 -3.97569e-016 -7.95139e-016 3.18055e-015 -0.0117 -4.1944 -0.0248 0.0129473 0.00231697 -8.70038e-005 -0.0071 -2.3249 -0.0142 9.93923e-017 -7.95139e-016 1.59028e-015 -0.6113 -8.7231 -2.0637 -3.97569e-016 -7.95139e-016 3.18055e-015 0.1927 -3.8059 -0.2383 0.0163314 0.00303369 -0.000872333 0.1091 -2.1688 -0.1362 3.97569e-016 7.95139e-016 -3.18055e-015 0.6151 -8.0947 -3.564 -3.97569e-016 -7.95139e-016 3.18055e-015 0.4882 -2.341 -0.6462 0.0145763 0.00367772 -0.00326275 0.3574 -1.7166 -0.4742 9.93923e-017 -3.97569e-016 -0 1.4199 -1.8761 1.4221 -3.97569e-016 -7.95139e-016 3.18055e-015 1.1472 -3.4929 2.6336 -1.98785e-016 -3.97569e-016 3.18055e-015 0.8229 -2.3 1.6571 -1.98785e-016 0 3.18055e-015 -9.412 3.9771 -0.7758 3.42482 1.32465 -0.0626183 -0.7531 -40.938 0 0.000117508 0.717283 0.000978199 0 -40.1986 0 -3.4257 -2.04197 -0.0604716 8.88178e-016 -4.4182 9.239 6.47761e-025 0 -0 9.4119 3.9773 -0.7758 -3.42483 1.34017 0.0627307 0.7532 -40.9383 -2.22045e-016 -0.000193936 0.682302 -0.0013703 -8.88179e-016 -40.1986 0 3.42574 -2.02253 0.0595886 -8.88178e-016 -4.4182 9.239 -8.45714e-024 0 -7.40531e-025 
42.3033 43.0319 17.6035 179.993 59.0055 -30.0017 5.32907e-015 8.7983 -4.7612 -1.39808 10.1869 3.97936 7.10543e-015 8.0291 0.4195 -3.61108 20.2448 8.41725 0 9.9351 -2.2114 -3.61107 20.2448 8.41725 3.55271e-015 22.3885 -0.4656 5.95104e-005 13.9932 -0.000114457 -0.0001 12.643 3.4389 -0.0996688 -0.159102 -0.000138614 2.2603 21.606 7.4023 -32.575 -2.18049 -20.3713 13.5163 -1.1332 -5.0146 53.8774 13.6407 -37.2303 -0.0995 -28.05 -0.2431 1.83733 -9.0748 -35.6338 0.0679 -23.3996 -0.1402 6.97482 -8.06631 17.0343 0.7932 -9.069 2.5189 -7.95139e-016 -1.27222e-014 -0 -0.8272 -3.3923 0.5977 -1.59028e-015 -1.90833e-014 1.98785e-016 -0.5649 -2.3158 0.4082 -7.95139e-016 -1.27222e-014 1.19271e-015 0.9159 -9.2044 0.2193 -7.95139e-016 -1.27222e-014 -0 0.0117 -4.1944 -0.0248 -0.0128641 0.00232043 8.52088e-005 0.0071 -2.3249 -0.0142 -7.72434e-032 3.18055e-015 1.39149e-015 0.6113 -8.7231 -2.0637 -7.95139e-016 -1.27222e-014 -0 -0.1927 -3.8059 -0.2383 -0.0160618 0.00299205 0.000858079 -0.1091 -2.1688 -0.1362 -2.38542e-015 3.18055e-015 3.97569e-016 -0.6151 -8.0947 -3.5641 -7.95139e-016 -1.27222e-014 -0 -0.4882 -2.341 -0.6462 -0.0125861 0.00311866 0.00283017 -0.3575 -1.7167 -0.4742 7.95139e-016 0 1.78906e-015 -1.42 -1.8761 1.4223 -7.95139e-016 -1.27222e-014 -0 -1.1471 -3.4929 2.6334 -1.59028e-015 -1.90833e-014 1.98785e-016 -0.823 -2.3 1.6571 -7.95139e-016 -1.27222e-014 1.19271e-015 -2.2603 21.606 7.4023 -21.858 -10.4025 31.3965 -13.5187 -1.1334 -5.0155 -13.8317 -18.4236 -47.4645 0.0994 -28.0499 -0.2431 41.9791 -14.2805 29.8343 -0.0679 -23.3996 -0.1402 26.5026 -2.38297 -34.3659 -0.7932 -9.0691 2.5189 6.36111e-015 1.59028e-015 -0 0.8272 -3.3923 0.5977 1.46786e-006 -1.89641e-005 -3.99101e-006 0.565 -2.3158 0.4082 -2.05289e-006 2.39706e-006 2.39257e-006 -0.916 -9.2044 0.2193 6.36111e-015 1.59028e-015 -0 -0.0117 -4.1944 -0.0248 0.0129615 0.00231586 -8.86923e-005 -0.0071 -2.3249 -0.0142 -8.85731e-006 2.46944e-006 -2.30627e-006 -0.6113 -8.7231 -2.0637 6.36111e-015 1.59028e-015 -0 0.1927 -3.8059 -0.2383 0.0163217 0.00304178 -0.000873176 0.1091 -2.1688 -0.1362 -1.27222e-014 2.38542e-014 2.70347e-014 0.6151 -8.0947 -3.564 6.36111e-015 1.59028e-015 -0 0.4882 -2.341 -0.6462 0.0145498 0.00366864 -0.00325459 0.3574 -1.7166 -0.4742 3.18055e-015 -7.95139e-015 -1.59028e-015 1.4199 -1.8761 1.4221 6.36111e-015 1.59028e-015 -0 1.1472 -3.4929 2.6336 1.46786e-006 -1.89641e-005 -3.99101e-006 0.8229 -2.3 1.6571 -2.05289e-006 2.39706e-006 2.39257e-006 -9.412 3.9771 -0.7758 -76.8297 -32.1983 -65.2644 -0.7531 -40.938 0 -118.956 67.1159 148.208 -7.10543e-015 -40.1986 0 -25.7703 5.30395 4.52583 3.55271e-015 -4.4182 9.239 -9.54166e-015 -6.36111e-015 -0 9.4119 3.9773 -0.7758 62.8824 -49.7846 63.7428 0.7532 -40.9383 -3.55272e-015 3.017 16.823 -0.396701 0 -40.1986 -7.10543e-015 2.88034 0.12098 0.142113 7.10543e-015 -4.4182 9.23901 -5.93301e-009 -7.25683e-012 1.06544e-007 
42.3257 43.0681 17.6247 179.993 59.0055 -30.0017 7.10543e-015 8.7983 -4.7612 -1.33407 9.97838 3.99589 0 8.0291 0.4195 -3.46325 19.8328 8.42511 0 9.9351 -2.2114 -3.46325 19.8328 8.42511 -3.55271e-015 22.3885 -0.4656 4.73686e-005 13.604 -9.88685e-005 -0.0001 12.643 3.4389 -0.0996799 -0.547738 -0.000961687 2.2603 21.606 7.4023 -34.4012 -1.60984 -19.5421 13.5163 -1.1332 -5.0146 55.9271 13.8446 -37.6082 -0.0995 -28.05 -0.2431 1.76634 -8.60136 -35.6422 0.0679 -23.3996 -0.1402 6.84237 -8.53341 16.5842 0.7932 -9.069 2.5189 -7.95139e-016 -3.18055e-015 1.78906e-015 -0.8272 -3.3923 0.5977 -7.95139e-016 3.18055e-015 1.59028e-015 -0.5649 -2.3158 0.4082 3.25298e-006 -7.44021e-006 1.00563e-006 0.9159 -9.2044 0.2193 -7.95139e-016 -3.18055e-015 1.78906e-015 0.0117 -4.1944 -0.0248 -0.0127708 0.00231493 8.07012e-005 0.0071 -2.3249 -0.0142 -7.95139e-016 1.27222e-014 -6.36111e-015 0.6113 -8.7231 -2.0637 -7.95139e-016 -3.18055e-015 1.78906e-015 -0.1927 -3.8059 -0.2383 -0.0160233 0.00298203 0.000848538 -0.1091 -2.1688 -0.1362 -0 0 1.78906e-015 -0.6151 -8.0947 -3.5641 -7.95139e-016 -3.18055e-015 1.78906e-015 -0.4882 -2.341 -0.6462 -0.0126143 0.00311901 0.00283573 -0.3575 -1.7167 -0.4742 1.59028e-015 -6.36111e-015 3.97569e-016 -1.42 -1.8761 1.4223 -7.95139e-016 -3.18055e-015 1.78906e-015 -1.1471 -3.4929 2.6334 -7.95139e-016 3.18055e-015 1.59028e-015 -0.823 -2.3 1.6571 3.25298e-006 -7.44021e-006 1.00563e-006 -2.2603 21.606 7.4023 -21.2962 -9.34024 32.0341 -13.5187 -1.1334 -5.0155 -14.1015 -18.4 -47.5662 0.0994 -28.0499 -0.2431 41.6795 -14.1696 29.7409 -0.0679 -23.3996 -0.1402 26.3101 -1.0145 -34.3736 -0.7932 -9.0691 2.5189 5.06176e-006 5.07041e-007 9.32787e-010 0.8272 -3.3923 0.5977 3.18055e-015 -3.18055e-015 -4.77083e-015 0.565 -2.3158 0.4082 1.66899e-006 -2.60653e-007 4.82866e-006 -0.916 -9.2044 0.2193 5.06176e-006 5.07041e-007 9.32787e-010 -0.0117 -4.1944 -0.0248 0.012938 0.00230141 -8.63593e-005 -0.0071 -2.3249 -0.0142 -2.43728e-006 1.38418e-005 -7.48768e-007 -0.6113 -8.7231 -2.0637 5.06176e-006 5.07041e-007 9.32787e-010 0.1927 -3.8059 -0.2383 0.0163349 0.0030362 -0.000881923 0.1091 -2.1688 -0.1362 -2.4371e-006 -1.6689e-006 -7.48838e-007 0.6151 -8.0947 -3.564 5.06176e-006 5.07041e-007 9.32787e-010 0.4882 -2.341 -0.6462 0.0145815 0.00368229 -0.00326451 0.3574 -1.7166 -0.4742 2.99337e-006 -1.28842e-006 2.35858e-006 1.4199 -1.8761 1.4221 5.06176e-006 5.07041e-007 9.32787e-010 1.1472 -3.4929 2.6336 3.18055e-015 -3.18055e-015 -4.77083e-015 0.8229 -2.3 1.6571 1.66899e-006 -2.60653e-007 4.82866e-006 -9.412 3.9771 -0.7758 -77.5068 -32.7353 -65.7424 -0.7531 -40.938 0 -119.64 67.2393 148.813 -7.10543e-015 -40.1986 0 -25.782 5.28125 4.52508 0 -4.4182 9.239 4.54576e-006 1.75193e-006 -7.82039e-008 9.4119 3.9773 -0.7758 62.8894 -49.7804 63.7474 0.7532 -40.9383 3.55271e-015 3.01881 16.8478 -0.397905 0 -40.1986 0 2.87309 0.0984154 0.142864 7.10543e-015 -4.4182 9.23901 -8.39601e-007 -4.28437e-007 1.10633e-007 
42.3478 43.1042 17.6461 179.993 59.0055 -30.0018 0 8.7983 -4.7612 -1.26938 9.76864 4.01119 0 8.0291 0.4195 -3.31393 19.4185 8.43098 -3.55271e-015 9.9351 -2.2114 -3.31394 19.4185 8.43099 0 22.3885 -0.4656 4.03505e-005 13.2146 -8.20108e-005 -0.0001 12.643 3.4389 -0.099702 -0.936423 -0.00178498 2.2603 21.606 7.4023 -36.2415 -1.06412 -18.6924 13.5163 -1.1332 -5.0146 57.9904 14.0358 -37.9957 -0.0995 -28.05 -0.2431 1.69521 -8.12766 -35.6501 0.0679 -23.3996 -0.1402 6.70601 -8.99971 16.1322 0.7932 -9.069 2.5189 0 0 -1.98785e-015 -0.8272 -3.3923 0.5977 -7.95139e-016 3.18055e-015 -2.18663e-015 -0.5649 -2.3158 0.4082 -7.95139e-016 0 -2.38542e-015 0.9159 -9.2044 0.2193 0 0 -1.98785e-015 0.0117 -4.1944 -0.0248 -0.012844 0.00232007 8.47055e-005 0.0071 -2.3249 -0.0142 -6.62086e-031 -1.59028e-014 -2.38542e-015 0.6113 -8.7231 -2.0637 0 0 -1.98785e-015 -0.1927 -3.8059 -0.2383 -0.0160818 0.00299756 0.000847038 -0.1091 -2.1688 -0.1362 1.59028e-015 3.18055e-015 -1.78906e-015 -0.6151 -8.0947 -3.5641 0 0 -1.98785e-015 -0.4882 -2.341 -0.6462 -0.0125375 0.00309727 0.00280271 -0.3575 -1.7167 -0.4742 2.38542e-015 -9.54166e-015 2.18663e-015 -1.42 -1.8761 1.4223 0 0 -1.98785e-015 -1.1471 -3.4929 2.6334 -7.95139e-016 3.18055e-015 -2.18663e-015 -0.823 -2.3 1.6571 -7.95139e-016 0 -2.38542e-015 -2.2603 21.606 7.4023 -20.7468 -8.26969 32.6606 -13.5187 -1.1334 -5.0155 -14.3715 -18.3759 -47.668 0.0994 -28.0499 -0.2431 41.3803 -14.058 29.648 -0.0679 -23.3996 -0.1402 26.1175 0.357222 -34.3767 -0.7932 -9.0691 2.5189 -1.27222e-014 -4.77083e-015 3.18055e-015 0.8272 -3.3923 0.5977 -9.54166e-015 3.18055e-015 3.18055e-015 0.565 -2.3158 0.4082 -1.27222e-014 -3.18055e-015 1.59028e-015 -0.916 -9.2044 0.2193 -1.27222e-014 -4.77083e-015 3.18055e-015 -0.0117 -4.1944 -0.0248 0.0129671 0.00231764 -8.27782e-005 -0.0071 -2.3249 -0.0142 -3.18055e-015 -3.18055e-015 -6.36111e-015 -0.6113 -8.7231 -2.0637 -1.27222e-014 -4.77083e-015 3.18055e-015 0.1927 -3.8059 -0.2383 0.016334 0.00303001 -0.000872446 0.1091 -2.1688 -0.1362 -9.54166e-015 -3.18055e-015 -1.59028e-015 0.6151 -8.0947 -3.564 -1.27222e-014 -4.77083e-015 3.18055e-015 0.4882 -2.341 -0.6462 0.0145802 0.00368657 -0.00326201 0.3574 -1.7166 -0.4742 0 0 -1.59028e-015 1.4199 -1.8761 1.4221 -1.27222e-014 -4.77083e-015 3.18055e-015 1.1472 -3.4929 2.6336 -9.54166e-015 3.18055e-015 3.18055e-015 0.8229 -2.3 1.6571 -1.27222e-014 -3.18055e-015 1.59028e-015 -9.412 3.9771 -0.7758 -78.1938 -33.2681 -66.231 -0.7531 -40.938 0 -120.332 67.3597 149.426 1.06581e-014 -40.1986 0 -25.7936 5.25825 4.52413 3.55271e-015 -4.4182 9.239 3.57006e-006 -1.09927e-006 -4.17854e-006 9.4119 3.9773 -0.7758 62.8974 -49.7754 63.7527 0.7532 -40.9383 -3.55272e-015 3.01946 16.8727 -0.399092 0 -40.1986 7.10543e-015 2.86597 0.075889 0.143645 -7.10543e-015 -4.4182 9.239 -8.8995e-009 2.13137e-007 1.59816e-007 
